<svg width="26" height="26" viewBox="0 0 26 26" fill="none" xmlns="http://www.w3.org/2000/svg">
<path d="M17.9092 5.41663C20.2167 5.41663 21.6666 7.58329 21.6666 9.74996C24.5916 9.74996 24.5916 14.0833 21.6666 14.0833H4.33328C1.40828 14.0833 1.40828 9.74996 4.33328 9.74996C4.33328 7.58329 5.96521 5.41663 8.27271 5.41663C8.74938 7.29079 10.985 9.06057 13 9.06057C15.015 9.06057 16.9394 7.48481 17.9092 5.41663ZM5.41661 16.25H8.66661L9.74994 23.8333H7.58328L5.41661 16.25ZM10.8333 16.25H15.1666L14.0833 23.8333H11.9166L10.8333 16.25ZM17.3333 16.25H20.5833L18.4166 23.8333H16.2499L17.3333 16.25Z" fill="#201E1E"/>
<circle cx="13" cy="4.3333" r="3.54545" fill="#201E1E"/>
</svg>
