<svg width="26" height="26" viewBox="0 0 26 26" fill="none" xmlns="http://www.w3.org/2000/svg">
<path d="M20.5833 18.4166V12.7833C20.0417 12.8916 19.5 13 18.9583 13H18.4167V19.5H7.58333V11.9166C7.58333 8.88329 9.96667 6.49996 13 6.49996C13.1083 5.09163 13.7583 3.89996 14.625 2.92496C14.3 2.49163 13.65 2.16663 13 2.16663C11.8083 2.16663 10.8333 3.14163 10.8333 4.33329V4.65829C7.58333 5.63329 5.41667 8.55829 5.41667 11.9166V18.4166L3.25 20.5833V21.6666H22.75V20.5833L20.5833 18.4166ZM10.8333 22.75C10.8333 23.9416 11.8083 24.9166 13 24.9166C14.1917 24.9166 15.1667 23.9416 15.1667 22.75H10.8333ZM22.75 7.04163C22.75 9.09996 21.0167 10.8333 18.9583 10.8333C16.9 10.8333 15.1667 9.09996 15.1667 7.04163C15.1667 4.98329 16.9 3.24996 18.9583 3.24996C21.0167 3.24996 22.75 4.98329 22.75 7.04163Z" fill="#201E1E"/>
</svg>
